<?xml version="1.0" encoding="UTF-8"?>
<!DOCTYPE svg PUBLIC "-//W3C//DTD SVG 1.1//EN" "http://www.w3.org/Graphics/SVG/1.1/DTD/svg11.dtd">
<svg version="1.1" xmlns="http://www.w3.org/2000/svg" xmlns:xlink="http://www.w3.org/1999/xlink" x="0" y="0" width="470.564" height="562.462" viewBox="0, 0, 470.564, 562.462">
  <defs>
    <clipPath id="Clip_1">
      <path d="M240.466,334.971 C402.516,337.51 475.621,267.627 458.571,196.464 C441.51,125.313 346.277,84.639 315.007,71.084 C283.727,57.52 236.696,5 236.696,5 C236.696,5 189.655,57.52 158.385,71.084 C127.115,84.639 31.852,125.313 14.801,196.464 C-2.25,267.627 84.811,338.808 240.466,334.971 z"/>
    </clipPath>
  </defs>
  <g id="Layer_1">
    <path d="M99.244,302.119 L32.887,287.071 C32.887,287.071 30.455,277.392 20.299,273.505 C10.143,269.639 -3.441,304.004 12.028,319.024 C27.555,334.053 86.617,336.963 86.617,336.963" fill="#A7774E" id="path838"/>
    <path d="M99.244,302.119 L32.887,287.071 C32.887,287.071 30.455,277.392 20.299,273.505 C10.143,269.639 -3.441,304.004 12.028,319.024 C27.555,334.053 86.617,336.963 86.617,336.963" fill-opacity="0" stroke="#3C2C1E" stroke-width="10" stroke-linecap="round" stroke-linejoin="round" id="path840"/>
    <path d="M160.563,484.649 L157.135,534.805 C157.135,534.805 140.016,546.866 143.445,553.369 C146.871,559.873 185.68,559.864 191.373,544.082 C197.087,528.291 202.78,482.793 202.78,482.793" fill="#A7774E" id="path842"/>
    <path d="M160.563,484.649 L157.135,534.805 C157.135,534.805 140.016,546.866 143.445,553.369 C146.871,559.873 185.68,559.864 191.373,544.082 C197.087,528.291 202.78,482.793 202.78,482.793" fill-opacity="0" stroke="#3C2C1E" stroke-width="10" stroke-linecap="round" stroke-linejoin="round" id="path844"/>
    <path d="M377.321,333.301 L442.467,349.336 C442.467,349.336 448.873,341.856 459.557,342.92 C470.221,343.984 467.057,380.293 446.744,386.709 C426.451,393.106 373.063,369.619 373.063,369.619" fill="#A7774E" id="path846"/>
    <path d="M377.321,333.301 L442.467,349.336 C442.467,349.336 448.873,341.856 459.557,342.92 C470.221,343.984 467.057,380.293 446.744,386.709 C426.451,393.106 373.063,369.619 373.063,369.619" fill-opacity="0" stroke="#3C2C1E" stroke-width="10" stroke-linecap="round" stroke-linejoin="round" id="path848"/>
    <path d="M305.719,484.649 L309.117,534.805 C309.117,534.805 326.257,546.866 322.828,553.369 C319.401,559.873 280.602,559.864 274.908,544.082 C269.196,528.291 263.502,482.793 263.502,482.793" fill="#A7774E" id="path850"/>
    <path d="M305.719,484.649 L309.117,534.805 C309.117,534.805 326.257,546.866 322.828,553.369 C319.401,559.873 280.602,559.864 274.908,544.082 C269.196,528.291 263.502,482.793 263.502,482.793" fill-opacity="0" stroke="#3C2C1E" stroke-width="10" stroke-linecap="round" stroke-linejoin="round" id="path852"/>
    <path d="M152.272,310.224 C152.272,310.224 102.399,285.928 94.742,290.606 C87.057,295.274 71.716,357.9 78.425,360.703 C85.134,363.515 139.811,368.183 139.811,368.183 C139.811,368.183 134.05,428.007 140.759,428.007 C147.488,428.007 337.369,429.882 340.25,426.152 C343.102,422.402 335.446,371.913 335.446,371.913 L367.096,382.198 C367.096,382.198 401.627,328.926 396.822,324.248 C392.047,319.579 345.027,298.077 345.027,298.077" fill="#E0575A" id="path854"/>
    <path d="M152.272,310.224 C152.272,310.224 102.399,285.928 94.742,290.606 C87.057,295.274 71.716,357.9 78.425,360.703 C85.134,363.515 139.811,368.183 139.811,368.183 C139.811,368.183 134.05,428.007 140.759,428.007 C147.488,428.007 337.369,429.882 340.25,426.152 C343.102,422.402 335.446,371.913 335.446,371.913 L367.096,382.198 C367.096,382.198 401.627,328.926 396.822,324.248 C392.047,319.579 345.027,298.077 345.027,298.077" fill-opacity="0" stroke="#3C2C1E" stroke-width="10" stroke-linecap="round" stroke-linejoin="round" id="path856"/>
    <path d="M131.871,485.078 C144.861,485.078 212.634,487.861 215.426,486.933 C218.219,486.005 228.445,471.152 228.445,471.152 C228.445,471.152 240.504,490.655 246.071,490.655 C251.637,490.655 336.08,491.446 342.662,487.87 C352.858,482.295 325.016,319.805 325.016,319.805 L297.145,322.588 C297.145,322.588 300.865,403.369 297.145,403.369 C293.425,403.369 162.507,406.152 161.578,402.452 C160.651,398.731 162.507,323.515 162.507,323.515 C162.507,323.515 142.096,318.877 139.303,318.877 C136.53,318.877 118.884,485.078 131.871,485.078" fill="#784B2E" id="path858"/>
    <path d="M131.871,485.078 C144.861,485.078 212.634,487.861 215.426,486.933 C218.219,486.005 228.445,471.152 228.445,471.152 C228.445,471.152 240.504,490.655 246.071,490.655 C251.637,490.655 336.08,491.446 342.662,487.87 C352.858,482.295 325.016,319.805 325.016,319.805 L297.145,322.588 C297.145,322.588 300.865,403.369 297.145,403.369 C293.425,403.369 162.507,406.152 161.578,402.452 C160.651,398.731 162.507,323.515 162.507,323.515 C162.507,323.515 142.096,318.877 139.303,318.877 C136.53,318.877 118.884,485.078 131.871,485.078 z" fill-opacity="0" stroke="#3C2C1E" stroke-width="10" stroke-linecap="round" stroke-linejoin="round" id="path860"/>
    <path d="M240.466,334.971 C402.516,337.51 475.621,267.627 458.571,196.464 C441.51,125.313 346.277,84.639 315.007,71.084 C283.727,57.52 236.696,5 236.696,5 C236.696,5 189.655,57.52 158.385,71.084 C127.115,84.639 31.852,125.313 14.801,196.464 C-2.25,267.627 84.811,338.808 240.466,334.971" fill="#A7774E" id="path862"/>
    <path d="M240.466,334.971 C402.516,337.51 475.621,267.627 458.571,196.464 C441.51,125.313 346.277,84.639 315.007,71.084 C283.727,57.52 236.696,5 236.696,5 C236.696,5 189.655,57.52 158.385,71.084 C127.115,84.639 31.852,125.313 14.801,196.464 C-2.25,267.627 84.811,338.808 240.466,334.971 z" fill-opacity="0" stroke="#3C2C1E" stroke-width="10" stroke-linecap="round" stroke-linejoin="round" id="path864"/>
    <g clip-path="url(#Clip_1)" id="g870">
      <path d="M33.697,292.109 C33.697,292.109 104.303,251.757 227.897,246.7 C351.481,241.661 438.483,297.139 438.483,297.139 C438.483,297.139 360.309,365.254 231.676,353.887 C103.053,342.548 33.697,292.109 33.697,292.109" fill="#D7A47B" id="path866"/>
      <path d="M33.697,292.109 C33.697,292.109 104.303,251.757 227.897,246.7 C351.481,241.661 438.483,297.139 438.483,297.139 C438.483,297.139 360.309,365.254 231.676,353.887 C103.053,342.548 33.697,292.109 33.697,292.109 z" fill-opacity="0" stroke="#3C2C1E" stroke-width="10" stroke-linecap="round" stroke-linejoin="round" id="path868"/>
    </g>
    <path d="M240.466,334.971 C402.516,337.51 475.621,267.627 458.571,196.464 C441.51,125.313 346.277,84.639 315.007,71.084 C283.727,57.52 236.696,5 236.696,5 C236.696,5 189.655,57.52 158.385,71.084 C127.115,84.639 31.852,125.313 14.801,196.464 C-2.25,267.627 84.811,338.808 240.466,334.971 z" fill-opacity="0" stroke="#3C2C1E" stroke-width="10" stroke-linecap="round" stroke-linejoin="round" id="path872"/>
    <path d="M191.647,181.973 C191.647,210.899 168.229,234.296 139.322,234.296 C110.436,234.296 86.998,210.899 86.998,181.973 C86.998,153.067 110.436,129.668 139.322,129.668 C168.229,129.668 191.647,153.067 191.647,181.973" fill="#E6753B" id="path874"/>
    <path d="M130.494,150.489 C132.252,154.385 128.658,159.795 122.477,162.568 C116.277,165.342 109.85,164.413 108.092,160.517 C106.354,156.62 109.947,151.192 116.129,148.418 C122.33,145.645 128.766,146.573 130.494,150.489" fill="#FFFFFE" id="path876"/>
    <path d="M377.701,181.973 C377.701,210.899 354.274,234.296 325.367,234.296 C296.471,234.296 273.043,210.899 273.043,181.973 C273.043,153.067 296.471,129.668 325.367,129.668 C354.274,129.668 377.701,153.067 377.701,181.973" fill="#E6753B" id="path878"/>
    <path d="M316.55,150.489 C318.307,154.385 314.703,159.795 308.512,162.568 C302.33,165.342 295.895,164.413 294.137,160.517 C292.408,156.62 296.002,151.192 302.184,148.418 C308.357,145.645 314.791,146.573 316.55,150.489" fill="#FFFFFE" id="path880"/>
    <path d="M185.104,131.846 L203.16,152.608 M285.32,131.846 L267.272,152.608 M215.787,204.063 L232.037,229.346 L254.615,202.265" fill-opacity="0" stroke="#3C2C1E" stroke-width="10" stroke-linecap="round" stroke-linejoin="round" id="path882"/>
  </g>
</svg>
